# xmcd CD database file
#
# Track frame offsets:
#	187
#	23820
#	50145
#	72147
#	98360
#	115980
#	135295
#	159205
#	183877
#	205070
#
# Disc length: 3045 seconds
#
# Revision: 0
# Processed by: cddbd v1.5PL3 Copyright (c) Steve Scherf et al.
# Submitted via: CDex 1.51
#
DISCID=760be30a
DTITLE=岩崎宏美 - Shower Of Love
DYEAR=1997
DGENRE=Pop
TTITLE0=愛がいっぱい
TTITLE1=そっと愛して
TTITLE2=(I Look)In Your Eyes
TTITLE3=時の向こうがわ
TTITLE4=Pain
TTITLE5=Rain 〜告白
TTITLE6=笑顔をみせて
TTITLE7=最後の愛で
TTITLE8=たったひとつだけ
TTITLE9=Believin'(Original Version)
EXTD=YEAR: 1997
EXTT0=
EXTT1=
EXTT2=
EXTT3=
EXTT4=
EXTT5=
EXTT6=
EXTT7=
EXTT8=
EXTT9=
PLAYORDER=
